<?xml version="1.0" encoding="UTF-8"?><svg id="Logo" xmlns="http://www.w3.org/2000/svg" viewBox="0 0 751.99 240"><defs><style>.cls-1{fill:#bcdbe8;}</style></defs><path class="cls-1" d="M447.67,84.93c2.74-2.61,4.11-5.88,4.11-9.82s-1.38-7.17-4.13-9.82c-2.75-2.66-6.12-3.98-10.11-3.98h-7.71v27.54h7.71c4.02,0,7.39-1.3,10.14-3.91ZM433.13,85.61v-21.11h4.41c3.16,0,5.76,1,7.81,2.99,2.04,2,3.06,4.53,3.06,7.62s-1.05,5.73-3.14,7.64c-2.09,1.91-4.89,2.86-8.39,2.86h-3.75Z"/><rect class="cls-1" x="460.42" y="61.3" width="3.3" height="27.54"/><path class="cls-1" d="M486.52,89.39c4.58,0,8.21-1.31,10.91-3.93v-11.31h-10.5v3.19h7.31v6.57c-2.01,1.44-4.58,2.17-7.71,2.17s-5.55-1.08-7.63-3.25c-2.08-2.17-3.12-4.74-3.12-7.73s1.02-5.7,3.06-7.84c2.05-2.14,4.59-3.21,7.62-3.21,1.66,0,3.19.35,4.57,1.05,1.38.7,2.49,1.66,3.32,2.88l2.68-1.98c-1.15-1.64-2.65-2.92-4.5-3.86-1.85-.93-3.87-1.39-6.07-1.39-3.94,0-7.27,1.39-9.99,4.19-2.71,2.79-4.07,6.18-4.07,10.17s1.36,7.34,4.09,10.11c2.73,2.78,6.07,4.17,10.04,4.17Z"/><rect class="cls-1" x="507.05" y="61.3" width="3.3" height="27.54"/><polygon class="cls-1" points="526.87 88.84 530.18 88.84 530.18 64.53 538.81 64.53 538.81 61.3 518.24 61.3 518.24 64.53 526.87 64.53 526.87 88.84"/><path class="cls-1" d="M554.59,60.79c-2.69,0-4.93.88-6.72,2.64-1.78,1.76-2.68,4.27-2.68,7.53v17.88h3.31v-7.64h12.22v7.64h3.23v-17.88c0-3.26-.89-5.77-2.68-7.53-1.79-1.76-4.02-2.64-6.68-2.64ZM560.72,78.01h-12.22v-6.72c0-4.82,2.03-7.23,6.1-7.23,1.91,0,3.4.62,4.48,1.86s1.63,3.03,1.65,5.38v6.72Z"/><polygon class="cls-1" points="577.32 61.3 574.01 61.3 574.01 88.84 591.6 88.84 591.6 85.61 577.32 85.61 577.32 61.3"/><rect class="cls-1" x="429.83" y="106.13" width="3.3" height="27.54"/><polygon class="cls-1" points="461.99 125.89 443.71 105.51 443.71 133.67 446.98 133.67 446.98 113.99 465.26 134.29 465.26 106.13 461.99 106.13 461.99 125.89"/><polygon class="cls-1" points="497.39 106.13 494.12 106.13 494.12 125.89 475.83 105.51 475.83 133.67 479.1 133.67 479.1 113.99 497.39 134.29 497.39 106.13"/><path class="cls-1" d="M530.42,130.05c2.75-2.78,4.13-6.15,4.13-10.11s-1.38-7.38-4.13-10.17c-2.76-2.79-6.11-4.19-10.08-4.19s-7.31,1.39-10.04,4.19c-2.73,2.79-4.09,6.18-4.09,10.17s1.36,7.34,4.09,10.11c2.73,2.78,6.07,4.17,10.04,4.17s7.32-1.39,10.08-4.17ZM509.54,119.94c0-3.09,1.04-5.69,3.12-7.82,2.08-2.13,4.64-3.19,7.68-3.19s5.63,1.07,7.73,3.19c2.09,2.13,3.14,4.74,3.14,7.82s-1.05,5.52-3.16,7.67c-2.11,2.15-4.68,3.23-7.71,3.23s-5.57-1.08-7.66-3.23c-2.09-2.15-3.14-4.71-3.14-7.67Z"/><polygon class="cls-1" points="562.2 106.13 558.64 106.13 550.45 125.48 550.27 125.48 542.15 106.13 538.62 106.13 550.41 134.15 562.2 106.13"/><path class="cls-1" d="M583.12,133.67h3.23v-17.88c0-3.26-.89-5.77-2.68-7.53-1.79-1.76-4.02-2.64-6.68-2.64s-4.93.88-6.72,2.64c-1.78,1.76-2.68,4.27-2.68,7.53v17.88h3.31v-7.64h12.22v7.64ZM570.9,122.84v-6.72c0-4.82,2.03-7.23,6.1-7.23,1.91,0,3.4.62,4.48,1.86s1.63,3.03,1.65,5.38v6.72h-12.22Z"/><polygon class="cls-1" points="601.33 133.67 604.64 133.67 604.64 109.36 613.27 109.36 613.27 106.13 592.71 106.13 592.71 109.36 601.33 109.36 601.33 133.67"/><rect class="cls-1" x="621.16" y="106.13" width="3.3" height="27.54"/><path class="cls-1" d="M647.42,134.22c3.97,0,7.32-1.39,10.08-4.17,2.75-2.78,4.13-6.15,4.13-10.11s-1.38-7.38-4.13-10.17c-2.76-2.79-6.11-4.19-10.08-4.19s-7.31,1.39-10.04,4.19c-2.73,2.79-4.09,6.18-4.09,10.17s1.36,7.34,4.09,10.11c2.73,2.78,6.07,4.17,10.04,4.17ZM639.74,112.12c2.08-2.13,4.64-3.19,7.68-3.19s5.63,1.07,7.73,3.19c2.09,2.13,3.14,4.74,3.14,7.82s-1.05,5.52-3.16,7.67-4.68,3.23-7.71,3.23-5.57-1.08-7.66-3.23-3.14-4.71-3.14-7.67,1.04-5.69,3.12-7.82Z"/><polygon class="cls-1" points="688.72 106.13 688.72 125.89 670.44 105.51 670.44 133.67 673.7 133.67 673.7 113.99 691.99 134.29 691.99 106.13 688.72 106.13"/><path class="cls-1" d="M441.98,175.67c-3.01,0-5.56-1.07-7.64-3.21s-3.12-4.7-3.12-7.69,1.03-5.63,3.09-7.78c2.06-2.15,4.59-3.23,7.6-3.23,3.18,0,5.73,1.29,7.64,3.89l2.68-1.98c-2.47-3.5-5.91-5.25-10.32-5.25-3.94,0-7.27,1.39-9.99,4.19-2.72,2.79-4.08,6.18-4.08,10.17s1.36,7.34,4.09,10.11c2.73,2.78,6.08,4.17,10.04,4.17,2.3,0,4.37-.51,6.2-1.53,1.83-1.01,3.33-2.41,4.48-4.2l-2.61-2.06c-1.98,2.94-4.67,4.41-8.08,4.41Z"/><polygon class="cls-1" points="463.86 167 476.05 167 476.05 163.81 463.86 163.81 463.86 154.15 478.51 154.15 478.51 150.96 460.56 150.96 460.56 178.5 478.81 178.5 478.81 175.27 463.86 175.27 463.86 167"/><polygon class="cls-1" points="505.72 170.72 487.44 150.34 487.44 178.5 490.71 178.5 490.71 158.82 508.99 179.12 508.99 150.96 505.72 150.96 505.72 170.72"/><polygon class="cls-1" points="516.89 154.19 525.51 154.19 525.51 178.5 528.82 178.5 528.82 154.19 537.45 154.19 537.45 150.96 516.89 150.96 516.89 154.19"/><polygon class="cls-1" points="548.64 167 560.83 167 560.83 163.81 548.64 163.81 548.64 154.15 563.29 154.15 563.29 150.96 545.34 150.96 545.34 178.5 563.59 178.5 563.59 175.27 548.64 175.27 548.64 167"/><path class="cls-1" d="M589.75,166.32c1.01-1.7,1.52-3.53,1.52-5.49,0-2.91-.99-5.29-2.97-7.12-1.98-1.83-4.46-2.75-7.42-2.75h-8.66v27.54h3.27v-7.64h6.27l4.85,7.64h3.93l-5.25-8.23c1.96-.93,3.44-2.24,4.46-3.95ZM580.88,167.67h-5.4v-13.51h5.4c1.98,0,3.65.64,4.99,1.93,1.35,1.29,2.02,2.92,2.02,4.9s-.68,3.56-2.04,4.81c-1.36,1.25-3.01,1.87-4.97,1.87Z"/><rect class="cls-1" x="601.33" y="163.81" width="90.65" height="3.19"/><path class="cls-1" d="M122.16,157.08c6.62-3.37,12.13-8.62,15.46-15.16,3.42-6.53,4.65-14.13,4.74-21.69,0-7.51-1.49-15.07-4.95-21.6-3.46-6.53-8.8-12-15.37-15.33-7.04-3.84-14.9-5.21-23.14-5.42-4.06-.17-22.41-.09-22.41-.09v84.41s18.4,0,22.41-.09c8.28-.17,16.22-1.28,23.27-5.04ZM92.62,151.18h-5.12v-62.46h5.08c2.01.04,4.01.04,5.89.13,3.8.13,7.17.47,10.08,1.11,2.95.64,5.59,1.62,8.45,3.12,9.18,4.61,14.47,14.9,14.35,27.11-.04,6.36-1.15,12.21-3.5,16.65-2.31,4.48-5.81,7.9-10.76,10.46-2.65,1.37-5.21,2.26-8.2,2.86-2.99.6-6.45.85-10.29.94l-5.98.09Z"/><path class="cls-1" d="M129.68,68.66c-4.61-2.43-9.9-4.44-15.24-5.59-5.29-1.11-10.33-1.54-14.94-1.71-2.31-.09-4.53-.13-6.75-.13l-16.27.09v11.02c7.3-.04,19.6-.09,22.59.04,4.31.13,8.67.51,13.02,1.45,4.35.94,8.58,2.56,12.51,4.57,7.56,3.89,13.75,10.2,17.68,17.68,3.93,7.47,5.59,15.93,5.55,24.17-.04,8.2-1.41,16.65-5.29,24.21-3.88,7.6-10.37,13.75-17.85,17.5-7.94,4.27-17.16,5.51-25.62,5.68-4.4.09-8.28.09-12.94.09h-15.16v-89.91h-10.97v100.89h32.7l6.66-.09c4.57-.13,9.52-.43,14.82-1.45,5.29-1.02,10.72-2.9,15.54-5.42,9.14-4.57,17.68-12.55,22.54-22.2,4.99-9.65,6.49-19.85,6.58-29.25.04-9.69-1.92-19.98-6.83-29.33-4.87-9.31-12.85-17.46-22.33-22.29Z"/><path class="cls-1" d="M268.6,168.99c-27.06,0-48.99-21.94-48.99-48.99s21.94-48.99,48.99-48.99c15.29,0,28.93,7.01,37.92,17.98l8.4-7.12c-11-13.35-27.67-21.86-46.32-21.86-33.14,0-60,26.86-60,60s26.86,60,60,60c20.7,0,38.95-10.48,49.74-26.43l-9.22-6.03c-8.82,12.95-23.67,21.46-40.52,21.46Z"/><path class="cls-1" d="M268.6,87.51c10.24,0,19.36,4.75,25.32,12.15l8.4-7.12c-7.97-9.78-20.11-16.03-33.72-16.03-24.02,0-43.49,19.47-43.49,43.49s19.47,43.49,43.49,43.49c14.92,0,28.08-7.52,35.91-18.97l-9.22-6.03c-5.87,8.45-15.63,14-26.7,14-17.94,0-32.49-14.55-32.49-32.49s14.55-32.49,32.49-32.49Z"/><rect class="cls-1" x="169.97" y="61.31" width="11" height="117.39"/><rect class="cls-1" x="186.47" y="61.31" width="11" height="117.39"/><polygon class="cls-1" points="324.05 178.7 401.83 178.7 401.83 167.69 335.06 167.69 335.06 72.31 401.83 72.31 401.83 61.31 324.05 61.31 324.05 178.7"/><polygon class="cls-1" points="340.56 120.55 401.83 120.55 401.83 109.55 351.56 109.55 351.56 88.82 401.83 88.82 401.83 77.81 340.56 77.81 340.56 120.55"/><polygon class="cls-1" points="340.56 162.19 401.83 162.19 401.83 151.19 351.56 151.19 351.56 137.06 401.83 137.06 401.83 126.05 340.56 126.05 340.56 162.19"/></svg>