<?xml version="1.0" encoding="UTF-8"?><svg id="Logo" xmlns="http://www.w3.org/2000/svg" viewBox="0 0 461.92 240"><path d="M122.21,157.08c6.62-3.37,12.13-8.62,15.46-15.16,3.42-6.53,4.65-14.13,4.74-21.69,0-7.51-1.49-15.07-4.95-21.6-3.46-6.53-8.8-12-15.37-15.33-7.04-3.84-14.9-5.21-23.14-5.42-4.06-.17-22.41-.09-22.41-.09v84.41s18.4,0,22.41-.09c8.28-.17,16.22-1.28,23.27-5.04ZM92.67,151.18h-5.12v-62.46h5.08c2.01.04,4.01.04,5.89.13,3.8.13,7.17.47,10.08,1.11,2.95.64,5.59,1.62,8.45,3.12,9.18,4.61,14.47,14.9,14.35,27.11-.04,6.36-1.15,12.21-3.5,16.65-2.31,4.48-5.81,7.9-10.76,10.46-2.65,1.37-5.21,2.26-8.2,2.86-2.99.6-6.45.85-10.29.94l-5.98.09ZM152.05,90.94c4.91,9.35,6.87,19.64,6.83,29.33-.09,9.39-1.58,19.6-6.58,29.25-4.87,9.65-13.41,17.63-22.54,22.2-4.82,2.52-10.25,4.4-15.54,5.42-5.29,1.02-10.25,1.32-14.82,1.45l-6.66.09h-32.7v-100.89h10.97v89.91h15.16c4.65,0,8.54,0,12.94-.09,8.45-.17,17.68-1.41,25.62-5.68,7.47-3.76,13.96-9.91,17.85-17.5,3.89-7.56,5.25-16.01,5.29-24.21.04-8.24-1.62-16.69-5.55-24.17s-10.12-13.79-17.68-17.68c-3.93-2.01-8.15-3.63-12.51-4.57-4.35-.94-8.71-1.32-13.02-1.45-2.99-.13-15.28-.09-22.59-.04v-11.02l16.27-.09c2.22,0,4.44.04,6.75.13,4.61.17,9.65.6,14.94,1.71,5.34,1.15,10.63,3.16,15.24,5.59,9.48,4.82,17.46,12.98,22.33,22.29ZM318.39,153.57c-10.78,15.95-29.04,26.43-49.74,26.43-33.14,0-60-26.86-60-60s26.86-60,60-60c18.65,0,35.31,8.51,46.32,21.86l-8.4,7.12c-8.98-10.97-22.63-17.98-37.92-17.98-27.06,0-48.99,21.94-48.99,48.99s21.94,48.99,48.99,48.99c16.85,0,31.7-8.51,40.52-21.46l9.22,6.03ZM236.16,120c0,17.94,14.55,32.49,32.49,32.49,11.07,0,20.83-5.55,26.7-14l9.22,6.03c-7.83,11.45-20.99,18.97-35.91,18.97-24.02,0-43.49-19.47-43.49-43.49s19.47-43.49,43.49-43.49c13.6,0,25.74,6.25,33.72,16.03l-8.4,7.12c-5.96-7.4-15.08-12.15-25.32-12.15-17.94,0-32.49,14.55-32.49,32.49ZM170.01,61.31h11v117.39h-11V61.31ZM186.52,61.31h11v117.39h-11V61.31ZM401.87,61.31v11h-66.77v95.38h66.77v11h-77.77V61.31h77.77ZM340.61,77.81h61.27v11h-50.26v20.73h50.26v11h-61.27v-42.74ZM340.61,126.05h61.27v11h-50.26v14.13h50.26v11h-61.27v-36.14Z"/></svg>